<svg xmlns="http://www.w3.org/2000/svg" xmlns:xlink="http://www.w3.org/1999/xlink" width="40" height="40" viewBox="0 0 40 40"><defs><style>.a{fill:#fff;}.b{clip-path:url(#a);}</style><clipPath id="a"><rect class="a" width="40" height="40" transform="translate(1510 2975)"/></clipPath></defs><g class="b" transform="translate(-1510 -2975)"><g transform="translate(1510 2975)"><path class="a" d="M35.028,36.378a17.563,17.563,0,0,1-22.7-10.092c-.061-.172-.123-.331-.184-.5H30.289a1.228,1.228,0,0,0,0-2.455h-18.8a17.917,17.917,0,0,1-.123-5.893H32.254a1.228,1.228,0,1,0,0-2.455H11.922A17.571,17.571,0,0,1,33.8,3.217c.405.123.823.258,1.24.417a1.232,1.232,0,1,0,.9-2.3h-.012A20.027,20.027,0,0,0,10.056,12.83a18.81,18.81,0,0,0-.688,2.136H4.507a1.228,1.228,0,1,0,0,2.455H8.89A20.606,20.606,0,0,0,9,23.315H4.507a1.228,1.228,0,0,0,0,2.455H9.577a20.024,20.024,0,0,0,24.948,13.37c.467-.147.933-.307,1.387-.479a1.224,1.224,0,0,0-.884-2.284Z"/></g></g></svg>