<svg xmlns="http://www.w3.org/2000/svg" xmlns:xlink="http://www.w3.org/1999/xlink" width="18" height="18" viewBox="0 0 18 18"><defs><style>.a{fill:#fff;}.b{clip-path:url(#a);}</style><clipPath id="a"><rect class="a" width="18" height="18" transform="translate(284 1336)"/></clipPath></defs><g class="b" transform="translate(-284 -1336)"><path class="a" d="M2.637,18H8.508V11.6H6.4V9.492H8.508V6.855a2.64,2.64,0,0,1,2.637-2.637h2.637V6.328H11.672a1.056,1.056,0,0,0-1.055,1.055V9.492h3.069L13.335,11.6H10.617V18h4.746A2.64,2.64,0,0,0,18,15.363V2.637A2.64,2.64,0,0,0,15.363,0H2.637A2.64,2.64,0,0,0,0,2.637V15.363A2.64,2.64,0,0,0,2.637,18ZM1.055,2.637A1.584,1.584,0,0,1,2.637,1.055H15.363a1.584,1.584,0,0,1,1.582,1.582V15.363a1.584,1.584,0,0,1-1.582,1.582H11.672V12.656h2.556l.7-4.219H11.672V7.383h3.164V3.164H11.145A3.7,3.7,0,0,0,7.453,6.855V8.438H5.344v4.219H7.453v4.289H2.637a1.584,1.584,0,0,1-1.582-1.582Zm0,0" transform="translate(284 1336)"/></g></svg>