<svg xmlns="http://www.w3.org/2000/svg" width="68.669" height="89.134" viewBox="0 0 68.669 89.134"><defs><style>.a{fill:#fff;}</style></defs><path class="a" d="M481.931,285.428c.4-4.117-1.3-8.627-4.765-12.537-.081-.091-.161-.182-.243-.271a37.84,37.84,0,0,0-5.323-4.7c-1.232-.925-2.517-1.824-3.76-2.693-.87-.609-1.77-1.238-2.641-1.869-3.7-2.684-7.774-6.053-9.875-10.694a16.6,16.6,0,0,1,6.95-21.291,6.636,6.636,0,0,0-.035,1.7l-.091-.041.194.709a8.418,8.418,0,0,0,.405,1.374,16.273,16.273,0,0,0,4.132,5.646c2.2,2.092,5.275,4.432,7.985,6.5.758.578,1.474,1.123,2.132,1.634a48.855,48.855,0,0,1,8.05,7.2,16.581,16.581,0,0,1,3.734,8.977c0,.022.014.105.016.126a24.864,24.864,0,0,1-.319,7.4A25.836,25.836,0,0,1,481.931,285.428Z" transform="translate(-440.098 -230.714)"/><g transform="translate(13.419)"><path class="a" d="M526.293,261.608c-12.04-11.63-17.641-27.543-19.094-32.22a8.017,8.017,0,0,1-.391-1.328l0-.016h0a6.289,6.289,0,0,1,.092-2.932s-12.662,13.7,8.633,37.482l-.006,0a37.759,37.759,0,0,1,5.276,4.659c.08.088.16.178.239.267A10.224,10.224,0,0,1,526.293,261.608Z" transform="translate(-497.647 -225.112)"/><path class="a" d="M555.8,279.5c-3-2.327-7.284-5.444-10.091-8.109a16.153,16.153,0,0,1-4.048-5.521c1.453,4.677,7.054,20.59,19.094,32.22a22.859,22.859,0,0,1,6.959-2.183C566.832,288.242,562.408,284.63,555.8,279.5Z" transform="translate(-532.108 -261.597)"/><path class="a" d="M459.848,225.112a16.942,16.942,0,0,0-7.756,22.089c2.049,4.526,5.964,7.916,9.987,10.831,2.116,1.533,4.306,2.99,6.4,4.559l.006,0C447.185,238.813,459.848,225.112,459.848,225.112Z" transform="translate(-450.598 -225.112)"/><path class="a" d="M678.137,592.25a26.036,26.036,0,0,0,7.37-13.754,50.867,50.867,0,0,1-6.652-5.444,10.224,10.224,0,0,0-5.255,5.91C676.822,582.6,679.029,587.484,678.137,592.25Z" transform="translate(-650.209 -536.556)"/><path class="a" d="M730.352,559.864a25.255,25.255,0,0,0,.323-7.5c0-.043-.011-.085-.016-.128a22.858,22.858,0,0,0-6.959,2.183A50.862,50.862,0,0,0,730.352,559.864Z" transform="translate(-695.054 -517.924)"/></g><g transform="translate(14.876 27.384)"><path class="a" d="M480.316,498.241c-4.864-3.588-9.49-5.786-14.6-12.057a26.273,26.273,0,0,0-1.205,8.912A18.688,18.688,0,0,1,480.316,498.241Z" transform="translate(-464.488 -486.184)"/><path class="a" d="M482.529,596.861a5.5,5.5,0,0,1-.566,1.966,31.283,31.283,0,0,0,6.192-10.73c1.173-3.989,1.01-8.52-1.2-12.045a20.314,20.314,0,0,0-1.918-2.555q-.569-.644-1.141-1.223l-.145-.146-.013-.013a28.719,28.719,0,0,0-2.977-2.566l-.285-.211a18.688,18.688,0,0,0-15.809-3.145h0C482.994,581.2,483.326,592.5,482.529,596.861Z" transform="translate(-464.653 -557.281)"/><path class="a" d="M464.672,571.154h0s8.067,7,13.8,20.353h0a12.159,12.159,0,0,1,3.281,5.245,13.581,13.581,0,0,1,.778,5.068C483.326,597.461,482.994,586.164,464.672,571.154Z" transform="translate(-464.653 -562.241)"/><path class="a" d="M464.672,571.154a20.48,20.48,0,0,0,5.729,13.964c1.735,1.7,5.5,4.186,7.361,5.75q.366.308.709.639h0C472.739,578.152,464.672,571.154,464.672,571.154Z" transform="translate(-464.653 -562.241)"/></g><g transform="translate(0.241 72.056)"><path class="a" d="M326.385,913.026a.469.469,0,0,0-.461.461v5.671a.469.469,0,0,0,.461.461h7.065v.957h-7.065a1.407,1.407,0,0,1-1.418-1.418v-5.671a1.407,1.407,0,0,1,1.418-1.418h7.065v.957Z" transform="translate(-324.967 -912.069)"/><path class="a" d="M424.419,912.069a1.407,1.407,0,0,1,1.418,1.418v5.671a1.407,1.407,0,0,1-1.418,1.418h-5.671a1.407,1.407,0,0,1-1.418-1.418v-5.671a1.407,1.407,0,0,1,1.418-1.418Zm0,7.55a.469.469,0,0,0,.461-.461v-5.671a.469.469,0,0,0-.461-.461h-5.671a.469.469,0,0,0-.461.461v5.671a.469.469,0,0,0,.461.461Z" transform="translate(-407.642 -912.069)"/><path class="a" d="M519.2,912.069h1.311v8.507h-.957v-7.42l-3.887,4.62-3.887-4.62v7.42h-.957v-8.507h1.312l3.533,4.206Z" transform="translate(-491.326 -912.069)"/><path class="a" d="M622.438,912.183a1.414,1.414,0,0,1,1.418,1.418v2.493a1.414,1.414,0,0,1-1.418,1.418h-5.672a4.34,4.34,0,0,1-.461-.047v3.214h-.957v-8.495Zm.461,1.418a.469.469,0,0,0-.461-.461h-5.672a.469.469,0,0,0-.461.461v2.493a.459.459,0,0,0,.461.449h5.672a.459.459,0,0,0,.461-.449Z" transform="translate(-584.891 -912.171)"/><path class="a" d="M712.887,912.069a1.407,1.407,0,0,1,1.418,1.418v7.089h-.957v-3.107h-6.593v3.107H705.8v-7.089a1.407,1.407,0,0,1,1.418-1.418Zm.461,4.443v-3.025a.469.469,0,0,0-.461-.461h-5.671a.469.469,0,0,0-.461.461v3.025Z" transform="translate(-665.852 -912.069)"/><path class="a" d="M807.289,912.069h.957v8.507h-1.311l-6.238-7.42v7.42h-.957v-8.507h1.311l6.238,7.42Z" transform="translate(-749.94 -912.069)"/><path class="a" d="M897.841,912.069l-3.911,5.305v3.2h-.957v-3.2c-1.264-1.737-2.623-3.568-3.911-5.305h1.1l3.3,4.159c1.028-1.323,2.221-2.836,3.261-4.159Z" transform="translate(-829.893 -912.069)"/></g><g transform="translate(0 81.359)"><path class="a" d="M327.265,1003.183v2.631a.94.94,0,0,1-.942.942h-3.658v-5.993h.638v1.479h3.02A.94.94,0,0,1,327.265,1003.183Zm-.638,0a.309.309,0,0,0-.3-.3h-2.708a.311.311,0,0,0-.311.3v2.631a.311.311,0,0,0,.311.3h2.708a.309.309,0,0,0,.3-.3Z" transform="translate(-322.665 -1000.763)"/><path class="a" d="M376.677,1014.86v3.572a.942.942,0,0,1-.949.942h-2.708a.94.94,0,0,1-.942-.942v-3.572h.638v3.572a.309.309,0,0,0,.3.3h2.708a.311.311,0,0,0,.311-.3v-3.572Z" transform="translate(-366.894 -1013.381)"/><path class="a" d="M426.756,1015.864h-.646v-.062a.309.309,0,0,0-.3-.3H423.1a.309.309,0,0,0-.3.3v.693a.309.309,0,0,0,.3.3h2.708a.942.942,0,0,1,.949.942v.693a.942.942,0,0,1-.949.942H423.1a.94.94,0,0,1-.942-.942v-.062h.638v.062a.309.309,0,0,0,.3.3h2.708a.309.309,0,0,0,.3-.3v-.693a.309.309,0,0,0-.3-.3H423.1a.94.94,0,0,1-.942-.942v-.693a.94.94,0,0,1,.942-.942h2.708a.942.942,0,0,1,.949.942Z" transform="translate(-411.72 -1013.381)"/><path class="a" d="M473.987,1000.763v.638h-.638v-.638Zm-.638,1.479h.638v4.514h-.638Z" transform="translate(-457.544 -1000.763)"/><path class="a" d="M492.416,1015.8v3.572h-.638V1015.8a.309.309,0,0,0-.3-.3h-2.708a.311.311,0,0,0-.311.3v3.572h-.638v-4.514h3.658A.94.94,0,0,1,492.416,1015.8Z" transform="translate(-470.493 -1013.381)"/><path class="a" d="M543.831,1015.8v1.634h-3.961v1a.309.309,0,0,0,.3.3h3.658v.638h-3.658a.94.94,0,0,1-.942-.942V1015.8a.94.94,0,0,1,.942-.942h2.708A.942.942,0,0,1,543.831,1015.8Zm-.646,1v-1a.3.3,0,0,0-.3-.3h-2.708a.309.309,0,0,0-.3.3v1Z" transform="translate(-516.515 -1013.381)"/><path class="a" d="M594.948,1015.864H594.3v-.062a.309.309,0,0,0-.3-.3H591.29a.309.309,0,0,0-.3.3v.693a.309.309,0,0,0,.3.3H594a.942.942,0,0,1,.949.942v.693a.942.942,0,0,1-.949.942H591.29a.94.94,0,0,1-.942-.942v-.062h.638v.062a.309.309,0,0,0,.3.3H594a.309.309,0,0,0,.3-.3v-.693a.309.309,0,0,0-.3-.3H591.29a.94.94,0,0,1-.942-.942v-.693a.94.94,0,0,1,.942-.942H594a.942.942,0,0,1,.949.942Z" transform="translate(-562.271 -1013.381)"/><path class="a" d="M645.845,1015.864H645.2v-.062a.309.309,0,0,0-.3-.3h-2.708a.309.309,0,0,0-.3.3v.693a.309.309,0,0,0,.3.3H644.9a.942.942,0,0,1,.949.942v.693a.942.942,0,0,1-.949.942h-2.708a.94.94,0,0,1-.942-.942v-.062h.638v.062a.309.309,0,0,0,.3.3H644.9a.309.309,0,0,0,.3-.3v-.693a.309.309,0,0,0-.3-.3h-2.708a.94.94,0,0,1-.942-.942v-.693a.94.94,0,0,1,.942-.942H644.9a.942.942,0,0,1,.949.942Z" transform="translate(-607.829 -1013.381)"/><path class="a" d="M713.327,1002.88v2.934a.309.309,0,0,0,.3.3h1.65v.638h-1.65a.935.935,0,0,1-.942-.942v-5.051h.638v1.479h1.953v.638Z" transform="translate(-671.779 -1000.763)"/><path class="a" d="M747.633,1015.8v3.572h-3.658a.94.94,0,0,1-.942-.942V1016.8h3.954v-1a.3.3,0,0,0-.3-.3h-3.65v-.638h3.65A.942.942,0,0,1,747.633,1015.8Zm-.646,1.634h-3.315v1a.309.309,0,0,0,.3.3h3.012Z" transform="translate(-698.94 -1013.381)"/><path class="a" d="M797.355,1021.156h-2.818v-.646h2.818a.309.309,0,0,0,.3-.3v-.833h-3.012a.94.94,0,0,1-.942-.942V1015.8a.94.94,0,0,1,.942-.942h2.708a.935.935,0,0,1,.942.942v4.405A.937.937,0,0,1,797.355,1021.156Zm0-2.421a.309.309,0,0,0,.3-.3V1015.8a.309.309,0,0,0-.3-.3h-2.708a.309.309,0,0,0-.3.3v2.631a.309.309,0,0,0,.3.3Z" transform="translate(-744.297 -1013.381)"/><path class="a" d="M845.832,1000.763v5.051a.309.309,0,0,0,.3.3h.763v.638h-.763a.94.94,0,0,1-.942-.942v-5.051Z" transform="translate(-790.385 -1000.763)"/><path class="a" d="M868.239,1000.763v.638H867.6v-.638Zm-.638,1.479h.638v4.514H867.6Z" transform="translate(-810.442 -1000.763)"/><path class="a" d="M886.667,1015.8v3.572h-.638V1015.8a.309.309,0,0,0-.3-.3h-2.708a.311.311,0,0,0-.311.3v3.572h-.638v-4.514h3.658A.94.94,0,0,1,886.667,1015.8Z" transform="translate(-823.391 -1013.381)"/><path class="a" d="M938.083,1015.8v1.634h-3.961v1a.309.309,0,0,0,.3.3h3.658v.638h-3.658a.94.94,0,0,1-.942-.942V1015.8a.94.94,0,0,1,.942-.942h2.708A.942.942,0,0,1,938.083,1015.8Zm-.646,1v-1a.3.3,0,0,0-.3-.3h-2.708a.309.309,0,0,0-.3.3v1Z" transform="translate(-869.414 -1013.381)"/></g></svg>