<svg xmlns="http://www.w3.org/2000/svg" xmlns:xlink="http://www.w3.org/1999/xlink" width="40" height="40" viewBox="0 0 40 40"><defs><style>.a{fill:#fff;}.b{clip-path:url(#a);}</style><clipPath id="a"><rect class="a" width="40" height="40" transform="translate(900 2975)"/></clipPath></defs><g class="b" transform="translate(-900 -2975)"><g transform="translate(896.887 2977)"><path class="a" d="M9.971,6.338a.82.82,0,0,0-1.157.093C3.02,13.46,6.9,23.912,13.117,30.025A39.626,39.626,0,0,0,24,37.683a3.5,3.5,0,0,0,3.184,0,39.63,39.63,0,0,0,10.891-7.659C44.8,23.378,49.2,11.07,40.128,4.462a10.46,10.46,0,0,0-8.28-1.232A11.186,11.186,0,0,0,25.6,7.416a11.156,11.156,0,0,0-12.626-3.9.821.821,0,0,0,.571,1.539A9.468,9.468,0,0,1,24.88,9.333a.828.828,0,0,0,1.436,0A9.445,9.445,0,0,1,32.254,4.82a8.836,8.836,0,0,1,7,1.029C42.124,7.67,44.6,12.22,43.231,17.905a23.446,23.446,0,0,1-6.322,10.97q-.807.821-1.694,1.6a12.483,12.483,0,0,0-3.636-3.027,8.751,8.751,0,0,0,1.878-6.418,7.864,7.864,0,0,0-13.207-5.593,8.021,8.021,0,0,0-2.519,5.789,8.675,8.675,0,0,0,1.885,6.219,12.482,12.482,0,0,0-3.637,3.026q-.885-.778-1.69-1.6c-5.612-5.541-9.393-14.959-4.223-21.38a.82.82,0,0,0-.093-1.157Zm15.576,8.645a6.14,6.14,0,0,1,6.27,6.125c-2.14.112-4.257-.4-5.545-2.259a.833.833,0,0,0-1.348,0,5.6,5.6,0,0,1-5.546,2.26A6.207,6.207,0,0,1,25.547,14.983Zm-6.017,7.81a7.252,7.252,0,0,0,6.068-2.18,7.249,7.249,0,0,0,6.242,2.157,6.377,6.377,0,0,1-1.679,3.8,6.127,6.127,0,0,1-9.126,0,6.377,6.377,0,0,1-1.679-3.8l.174.023Zm-2.292,8.73a10.831,10.831,0,0,1,3.607-2.868,7.808,7.808,0,0,0,9.5,0,10.833,10.833,0,0,1,3.607,2.87,41.051,41.051,0,0,1-7.375,4.629,2.032,2.032,0,0,1-1.972-.005,41.04,41.04,0,0,1-7.369-4.627Z" transform="translate(-2.856 -2.875)"/></g></g></svg>