<svg xmlns="http://www.w3.org/2000/svg" xmlns:xlink="http://www.w3.org/1999/xlink" width="18" height="18" viewBox="0 0 18 18"><defs><style>.a{fill:#fff;}.b{clip-path:url(#a);}</style><clipPath id="a"><rect class="a" width="18" height="18" transform="translate(340 1336)"/></clipPath></defs><g class="b" transform="translate(-340 -1336)"><g transform="translate(340 1336)"><path class="a" d="M2.637,18H15.363A2.64,2.64,0,0,0,18,15.363V2.637A2.64,2.64,0,0,0,15.363,0H2.637A2.64,2.64,0,0,0,0,2.637V15.363A2.64,2.64,0,0,0,2.637,18ZM1.055,2.637A1.584,1.584,0,0,1,2.637,1.055H15.363a1.584,1.584,0,0,1,1.582,1.582V15.363a1.584,1.584,0,0,1-1.582,1.582H2.637a1.584,1.584,0,0,1-1.582-1.582Zm0,0"/><path class="a" d="M9,13.746A4.746,4.746,0,1,0,4.254,9,4.752,4.752,0,0,0,9,13.746ZM9,5.309A3.691,3.691,0,1,1,5.309,9,3.7,3.7,0,0,1,9,5.309Zm0,0"/><path class="a" d="M14.273,5.309a1.582,1.582,0,1,0-1.582-1.582A1.584,1.584,0,0,0,14.273,5.309Zm0-2.109a.527.527,0,1,1-.527.527A.528.528,0,0,1,14.273,3.2Zm0,0"/></g></g></svg>