<svg xmlns="http://www.w3.org/2000/svg" width="83.341" height="114.044" viewBox="0 0 83.341 114.044"><defs><style>.a{fill:#fff;}.b{fill:#a6a6a5;}</style></defs><g transform="translate(-140 -70)"><g transform="translate(153 70)"><path class="a" d="M161.357,121.75h-.089a39.079,39.079,0,0,1-11.663-1.792h0a20.126,20.126,0,0,1-9.965-7.885h0c-3.773-5.718-7.189-16.776-7.339-27.77v-.034c.15-11.011,3.566-22.069,7.339-27.791h0a20.149,20.149,0,0,1,9.965-7.94h0a39.508,39.508,0,0,1,11.752-1.788h0a39.534,39.534,0,0,1,11.752,1.776h0a20.183,20.183,0,0,1,9.961,7.914h0c3.765,5.722,7.185,16.78,7.327,27.791v.034c-.142,11.011-3.562,22.069-7.327,27.77h0a20.439,20.439,0,0,1-10.046,7.914h0a38.366,38.366,0,0,1-11.574,1.8Zm26.82-37.5h0a65.2,65.2,0,0,0-4.648-23.714c-2.594-6.109-6.561-9.854-12.393-11.508a38.038,38.038,0,0,0-9.819-1.262h0a38.182,38.182,0,0,0-9.836,1.262c-5.828,1.654-9.8,5.4-12.393,11.5a65.194,65.194,0,0,0-4.656,23.714h0a65.194,65.194,0,0,0,4.656,23.714c2.594,6.126,6.565,9.846,12.393,11.5a38,38,0,0,0,9.836,1.262h0a37.854,37.854,0,0,0,9.819-1.262c5.832-1.654,9.8-5.373,12.4-11.5a65.2,65.2,0,0,0,4.648-23.714Z" transform="translate(-132.3 -46.75)"/><path class="a" d="M213.184,94.071a6.946,6.946,0,0,1-.474-.831" transform="translate(-178.873 -73.671)"/><path class="a" d="M206.1,209.695c-.028-1.463,1.4-2.2,2.3-3.169a.981.981,0,0,0,.162-1.078.652.652,0,0,0-.466-.405.851.851,0,0,0-.778.146,1.179,1.179,0,0,0-.34.965l-1.005.061a1.917,1.917,0,0,1,.405-1.512,2.27,2.27,0,0,1,1.852-.592,1.767,1.767,0,0,1,1.139,2.926c-.588.628-1.358.969-1.852,1.678l2.529-.15c0,.308.041.616.053.9l-3.984.231Z" transform="translate(-174.929 -137.564)"/><path class="a" d="M179.928,201.926v.049l-1.645,5.049-1.054-.348,1.131-3.449v-.061c-.405-.15-.924-.292-1.329-.438l.211-.657a1.6,1.6,0,0,0,1.544-.154,1.648,1.648,0,0,0,.292-.267Z" transform="translate(-158.902 -136.113)"/><path class="a" d="M226.716,204.248a1.358,1.358,0,0,0-.965-1.058l-.32-.069a1.187,1.187,0,0,0,.527-1.159,1.321,1.321,0,0,0-.928-1.029,2.432,2.432,0,0,0-1.354.02,2.472,2.472,0,0,0-1.216.616,1.313,1.313,0,0,0-.332,1.337,1.183,1.183,0,0,0,.993.786l-.247.207a1.354,1.354,0,0,0-.361,1.382,1.589,1.589,0,0,0,1.119,1.159,2.991,2.991,0,0,0,1.39,0,2.89,2.89,0,0,0,1.216-.632,1.6,1.6,0,0,0,.454-1.544Zm-3.461-1.443a.685.685,0,0,1,.1-.811,1.062,1.062,0,0,1,.523-.284,1.009,1.009,0,0,1,.6,0,.7.7,0,0,1,.458.669.656.656,0,0,1-.215.47,1.321,1.321,0,0,1-1.05.259.656.656,0,0,1-.405-.316Zm2.2,2.432a1.451,1.451,0,0,1-1.345.332.835.835,0,0,1-.219-1.451,1.775,1.775,0,0,1,.515-.227h0a1.6,1.6,0,0,1,.559-.033.832.832,0,0,1,.49,1.378Z" transform="translate(-184.251 -135.635)"/><path class="a" d="M193.53,207.959a1.374,1.374,0,0,0-.6-1.3l-.284-.158a1.191,1.191,0,0,0,.839-.952,1.325,1.325,0,0,0-.575-1.26,2.959,2.959,0,0,0-2.634-.158,1.317,1.317,0,0,0-.725,1.179,1.216,1.216,0,0,0,.725,1.046l-.3.126a1.329,1.329,0,0,0-.754,1.216,1.568,1.568,0,0,0,.721,1.435,2.886,2.886,0,0,0,1.333.405,2.946,2.946,0,0,0,1.37-.239,1.621,1.621,0,0,0,.892-1.337Zm-2.89-2.4a.7.7,0,0,1,.336-.742,1.025,1.025,0,0,1,.579-.113,1.073,1.073,0,0,1,.567.182.693.693,0,0,1,.243.778.64.64,0,0,1-.344.405,1.215,1.215,0,0,1-.551.081,1.082,1.082,0,0,1-.531-.15.652.652,0,0,1-.3-.405Zm1.382,2.979a1.216,1.216,0,0,1-.705.138,1.317,1.317,0,0,1-.681-.219.839.839,0,0,1,.231-1.451,1.78,1.78,0,0,1,.555-.061h0a1.646,1.646,0,0,1,.543.13.831.831,0,0,1,.053,1.463Z" transform="translate(-166.146 -137.449)"/><path class="a" d="M250.667,86.015l-4.92,2.119-.438-1.021,4.916-2.124.442,1.025Z" transform="translate(-197.694 -68.873)"/><path class="a" d="M210.984,58.5,209.72,53l1.167.118c.231,1.362.47,2.91.746,4.053.5-1.07,1.05-2.537,1.548-3.818l1.147.113L212,58.609l-1.017-.105Z" transform="translate(-177.106 -50.467)"/><path class="a" d="M156.094,72.409l-1.191,2.14-1.009-.563,1.366-2.452-.766-.434-1.913,3.433,4.669,2.61,1.913-3.437-.774-.43-1.37,2.456L155.709,75l1.2-2.136-.815-.454Z" transform="translate(-144.361 -61.232)"/><path class="a" d="M146.73,129.283a1.467,1.467,0,0,0-2.691.211,1.078,1.078,0,0,0-.9-.811,1.248,1.248,0,0,0-1.309.535c-.353.45-.2,2.432-.235,3.586h5.313V132.4c-.032-2.111.089-2.367-.182-3.145Zm-3.019,2.432H142.4c.041-1.216-.162-1.88.592-1.957.442-.032.559.065.665.332a5.758,5.758,0,0,1,.057,1.621Zm2.31,0h-1.5c.024-1.187-.158-1.888.547-2.026a.77.77,0,0,1,.734.146C146.1,130.126,146.009,130.612,146.021,131.715Z" transform="translate(-137.826 -94.02)"/><path class="a" d="M252.921,94.533l.851-.223,1.078,4.186-.855.219-.393-1.548-4.3,1.11L249.03,97.2l4.292-1.11-.4-1.552Z" transform="translate(-199.841 -74.251)"/><path class="a" d="M187.635,58.918a2.476,2.476,0,0,0,1.532-.778,1.293,1.293,0,0,0,.32-1.11l-.612-3.83-1.094.178L188.4,57.2a.786.786,0,0,1-.405.729,1.139,1.139,0,0,1-.49.166,1.183,1.183,0,0,1-.507,0,.758.758,0,0,1-.628-.563l-.62-3.822-1.086.174.616,3.822a1.281,1.281,0,0,0,.657.956,2.431,2.431,0,0,0,1.7.255Z" transform="translate(-163.44 -50.586)"/><path class="a" d="M256.564,111.928,251,110.81l.15,1.086,1.216.223.263,1.913-1.1.543.146,1.086,5.045-2.594-.162-1.139Zm-3.092,1.686-.182-1.325,2.306.353h0l-2.124.969Z" transform="translate(-200.981 -83.785)"/><path class="a" d="M256.784,131.462h.1l.122-.032.089-.036a1.07,1.07,0,0,0,.405-1.038.932.932,0,0,0-.49-.924.466.466,0,0,0-.551.126c-.608.9-.186,2.788-1.743,3.12a1.576,1.576,0,0,1-1.621-.725,3.181,3.181,0,0,1,.028-3.043,1.666,1.666,0,0,1,1.325-.709l.069,1.029a.989.989,0,0,0-.81.543,1.643,1.643,0,0,0,.223,1.7.6.6,0,0,0,.657.045c.616-.442.49-1.548.811-2.29a1.548,1.548,0,0,1,.685-.811,1.576,1.576,0,0,1,1.694.284,2.693,2.693,0,0,1,.405,2.788,1.585,1.585,0,0,1-1.41.993l-.069-1.021Z" transform="translate(-201.977 -93.845)"/><path class="a" d="M148.1,111.962a2.456,2.456,0,0,0-.263-1.7,1.285,1.285,0,0,0-.96-.656L143.057,109l-.174,1.082,3.826.608a.778.778,0,0,1,.567.624,1.216,1.216,0,0,1,0,.515,1.187,1.187,0,0,1-.17.482.758.758,0,0,1-.729.405l-3.822-.592-.174,1.086,3.83.6a1.281,1.281,0,0,0,1.11-.328,2.492,2.492,0,0,0,.774-1.532Z" transform="translate(-138.295 -82.739)"/><path class="a" d="M169.7,59.854l-.981.6,1.175,5.528.94-.567-.28-1.216,1.649-1.009.94.811.932-.567-4.377-3.6Zm.648,3.465-.588-2.257h0l1.73,1.56Z" transform="translate(-153.961 -54.529)"/><path class="a" d="M228.5,59.4l-2.253-.948.446-1.062,2.586,1.082.349-.819L226,56.14l-2.071,4.936,3.631,1.516.344-.819-2.6-1.086.575-1.382,2.269.956.348-.859Z" transform="translate(-185.318 -52.335)"/><path class="a" d="M149.606,91.408a1.183,1.183,0,0,0-.324-.964,1.556,1.556,0,0,0-1.216-.405c-1.191.182-1.35,1.548-2.026,3.712l5.135,1.536.324-1.07-2.026-.6-.081-.024a7,7,0,0,1,.438-1.252c.365-.847,1.722,0,2.261-.1l.312-1.062c-.912.049-2.14-.77-2.792.239Zm-1.066,1.917-1.341-.405c.3-.912.405-1.832,1.066-1.779a.855.855,0,0,1,.592.3c.247.308-.073.993-.316,1.876Z" transform="translate(-140.472 -71.767)"/><path class="a" d="M240.863,67.16,236.62,70.4l.673.888,1.678-1.281.073-.053a6.886,6.886,0,0,1,.754,1.09c.474.811-1.005,1.4-1.248,1.884l.656.879c.494-.774,1.88-1.281,1.447-2.4a1.159,1.159,0,0,0,.977.3,1.556,1.556,0,0,0,1.05-.746c.551-1.074-.458-2-1.828-3.809Zm.811,3.327a.839.839,0,0,1-.588.292c-.405,0-.762-.64-1.329-1.358l1.106-.851C241.43,69.344,242.079,70,241.674,70.487Z" transform="translate(-192.655 -58.889)"/><path class="a" d="M191.384,76.856a9.587,9.587,0,0,0-6.111-5.5,30.123,30.123,0,0,0-8.15-1.143h-.085a30.124,30.124,0,0,0-8.15,1.143,9.6,9.6,0,0,0-6.115,5.5c-2.46,5.542-4.053,13.509-4.053,21.345a56.155,56.155,0,0,0,4.053,21.341,9.611,9.611,0,0,0,6.115,5.508,30.119,30.119,0,0,0,8.15,1.138h.085a30.118,30.118,0,0,0,8.15-1.138,9.6,9.6,0,0,0,6.111-5.508c2.452-5.542,4.053-13.505,4.053-21.341S193.835,82.4,191.384,76.856Zm-4.725,15.88c.073,0,.434-.077.438-.315V87.475c.648-.162,1.3-.392,1.913-.524v2.984c.373-.043.555-.094,1.009-.166V93.7l-1.167.183-.361,1.586h-4.125l-.616-1.415c-1.005-.094-1.074-.094-2.087-.171a24.4,24.4,0,0,0,2.586-3.982V87.889l1.868-.252V92.4c0,.166.231.337.462.337Zm-2.432-18.182a1.589,1.589,0,0,1,1.491.29,1.694,1.694,0,0,1,.559,1.705c-.373,1.373-1.828,1.624-3.007,1.952l-.648-.925c.239-1.168.365-2.532,1.6-3.022ZM180.6,80.028l.474.874-1.171,1.364c-.324-.32-.348-.354-.665-.7.592-.674.665-.742,1.358-1.535Zm-14.678-1.859h0a2.294,2.294,0,0,0,1.216,1.42c-.073-.35-.361-.661-.454-1.023a2.723,2.723,0,0,1,.2-2.34,2.153,2.153,0,0,1,1.252-.853,2.861,2.861,0,0,0,0,1.876,4.529,4.529,0,0,0,.588-.529,1.862,1.862,0,0,1,.215-.188,6.01,6.01,0,0,1,.673,3.632l-.186.516c-.073-.853-.2-1.249-.742-1.552-.073.486.227.853.3,1.479a2.728,2.728,0,0,1-.535,2.558h-1.508C165.784,81.856,165.723,79.925,165.925,78.169Zm3.461,6.522h-.81l-.349,3.018a3.133,3.133,0,0,0-1.167-.7c-.2-1.279-.223-1.377-.332-2.319h-.778v-.9h3.428ZM163.559,96.7h9.215v2.831h-9.215Zm3.566-5.653a1.227,1.227,0,0,1,1.05.375c-.045,1.633-.045,1.616-.077,3.329h-.855v-.273c-.036-1.3-.089-2.153-.118-3.432Zm.981,19.469a2.392,2.392,0,0,1-1.56.426,2.887,2.887,0,0,1-.652-.085,2.079,2.079,0,0,1-1.3-.9l-.069-.132-.057-.171-.073-.179-.028-.286v-5.265c-.045-.661-.28-.674-.79-1.079l.182-.064,2.026-.695a1.917,1.917,0,0,1,.381,1.194V107.4c0,.269.215.426.507.426a.457.457,0,0,0,.519-.426c.024-1.846-.028-2.362,0-4.037a1.54,1.54,0,0,1,.973-1.253,1.937,1.937,0,0,1,1.743.09c.9.448.859,2.306.851,3.815a1.912,1.912,0,0,0-.766-.375,1.055,1.055,0,0,0-.887.183,1.241,1.241,0,0,0-.328,1.044C168.754,108.628,168.941,109.83,168.106,110.521Zm1.139,6.126a1.764,1.764,0,0,1-.7-1.023c-.373-1.79,1.682-2.43,2.168-3.918.405-2.485.5-5.116,2.14-7.038a14.4,14.4,0,0,1,3.753-9.532,14.88,14.88,0,0,0-.673-2.306,1.126,1.126,0,0,1-.81-.349,1.976,1.976,0,0,1-.357-.942,13.557,13.557,0,0,1-3.1,3.129c-.211.128-.486-.141-.875-.52-1.439-1.2-1.682-3.9-3.87-3.777-.993-.354-.948-1.586-1.11-2.507a1.508,1.508,0,0,1,1.41-.09c1.366.772,2.278,2.392,3.57,3.474a5.251,5.251,0,0,0,.973.81,8.01,8.01,0,0,0,2.1-2.609,2,2,0,0,1,1.791-.976l.519-.644-.276-1.611a11.686,11.686,0,0,1-1.333-2.276c.186-.921.3-2,1.187-2.507.584-.379,1.054.482,1.532-.064a.992.992,0,0,1,.892.234,4.764,4.764,0,0,1,.811,2.08,14.566,14.566,0,0,1-.892,2.132c-.077.149-.28.2-.405.311a2.329,2.329,0,0,0,.361.917,1.93,1.93,0,0,0,.831.047,2.467,2.467,0,0,1,1.787-1.4l1.524-1.044c-.243-1.219.5-2.293.089-3.5a3.076,3.076,0,0,1-1.313-2.285,4.185,4.185,0,0,1,.721-1.471l.053.064a7.955,7.955,0,0,1,1.864,3.338,32.458,32.458,0,0,1,.2,4.966,15.834,15.834,0,0,1-2.756,2.016l-.742,1.407c-.081,1.449-.486,2.75-.7,4.152.6,1.705,1.3,3.947.778,5.516a5.409,5.409,0,0,1-1.852,1.961l-1.564,1.317c1.572,1.82,1.191,3.884,1.26,6.522,0,.635,1.066,1.164.49,1.893-.486.814-1.236,1.471-1.11,2.558a2.512,2.512,0,0,1-2.176,1.023.189.189,0,0,1-.145-.055.21.21,0,0,1-.061-.149,9.636,9.636,0,0,1,.608-1.194c.559-.9.3-2.131,1-2.984a34.973,34.973,0,0,1-1.674-5.87v-.132a3.4,3.4,0,0,0,.037,2.66c-1.544,2.046-3.214,4.011-3.214,6.7a32.2,32.2,0,0,0-2.087,3.658C169.743,116.954,169.431,116.762,169.244,116.647Zm10.225-6.454a2.723,2.723,0,0,1,2.164,1.705,2.99,2.99,0,0,1-1.286,3.729,2.7,2.7,0,0,1-3.634-1.06c.575-.2,1.4-.554,1.56-1.142a4.391,4.391,0,0,1,1.005-2.387A.934.934,0,0,0,179.469,110.193Zm.855-.814v-8.313h2.667v8.321Zm-5.742,12.687a2.644,2.644,0,0,1-2.756.213,2.911,2.911,0,0,1-1.139-1.177,2.344,2.344,0,0,1-.284-1.057h5.268a2.627,2.627,0,0,1-1.09,2.008Zm3.611.213h-1.816v-3.41H173.54v-1.381h2.837l.888-1.1c.434.529.47.567.92,1.1h2.837v1.381h-2.837Zm5.674-1.177a2.945,2.945,0,0,1-1.135,1.177,2.64,2.64,0,0,1-3.842-2.234h5.268a2.356,2.356,0,0,1-.288,1.044Zm.43-18.881c.43-.354.778-.661,1.3-1.087-.041,1.078-.182,2.174.312,2.814,1.216,1.279,2.306,2.409,3.392,3.534a1.651,1.651,0,0,1,.462,1.705,5.051,5.051,0,0,1-.486.887,1.682,1.682,0,0,0-.559-1.279c-1.483-1.53-4.053-3.658-4.251-4.566a6.384,6.384,0,0,1-.162-2.021Zm4.122-1.1c.563.486.851.759,1.386,1.279.3,1.42-.5,2.221-1.106,3.214l-2.387-2.4v-1.4c.284-.328.405-.448.717-.793l.673.853v2.366C188.656,103.764,188.417,102.344,188.417,101.117Zm-.567,12.678c-.284.333-.405.452-.717.8l-.673-.853v-2.37c-.948.486-.721,1.9-.721,3.129-.559-.482-.843-.755-1.382-1.279-.3-1.415.5-2.221,1.11-3.214l2.383,2.4Zm2.026-.379c-.426.354-.778.661-1.293,1.079.036-1.074.182-2.17-.312-2.809-1.216-1.279-2.306-2.409-3.4-3.534a1.684,1.684,0,0,1-.462-1.727,5.183,5.183,0,0,1,.486-.887,1.69,1.69,0,0,0,.567,1.279c1.479,1.526,4.053,3.662,4.251,4.566a6.475,6.475,0,0,1,.154,2.033Zm.924-13.88h-9.211V96.717H190.8Z" transform="translate(-148.013 -60.647)"/></g><g transform="translate(140 157.625)"><path class="a" d="M112.081,243.015c-.782-.049-1.512-.045-2.1-.045h0V245.2a19.652,19.652,0,0,0,2.257-.065,1,1,0,0,0,.839-1.066,1.066,1.066,0,0,0-1-1.05Zm-.113-1.285a.908.908,0,0,0,.932-1.033.879.879,0,0,0-.993-.883h-1.929v1.917Zm25.531-1.836c-.466-.036-1.317.02-2.1,0v2.059a22.2,22.2,0,0,0,2.233-.045,1.025,1.025,0,0,0-.126-2.014ZM100.62,236.47v12.243h83.329V236.47Zm11.473,10.058h-3.761v-7.943h3.846a2.076,2.076,0,0,1,2.286,1.88,1.514,1.514,0,0,1-1.191,1.824,2.083,2.083,0,0,1,1.471,2.115c0,.9-.705,2.124-2.663,2.124Zm14.845-2.144a1.913,1.913,0,0,1-.729,1.556,3.708,3.708,0,0,1-2.432.786h-.02a3.68,3.68,0,0,1-2.432-.786,1.937,1.937,0,0,1-.742-1.556v-5.779h1.641v5.779a1.123,1.123,0,0,0,.811.973,1.622,1.622,0,0,0,.754.13,1.6,1.6,0,0,0,.746-.13,1.159,1.159,0,0,0,.79-.973v-5.779h1.641Zm11.647,2.144c-.377,0,.182-3.157-1.183-3.242-.762-.049-1.244,0-2,0v3.242h-1.658v-7.951c1.52,0,2.4.02,3.761.02,1.216.061,2.456.555,2.537,1.893a1.875,1.875,0,0,1-1.6,2.164c1.9.405,1.2,2.622,1.7,3.878Zm13.041-4.936v1.374h-3.647V245.2h4.186v1.325h-5.848v-7.959h5.848v1.313h-4.178v1.714Zm11.517,4.94-.576-1.743H159.69l-.559,1.743H157.51l2.784-7.955h1.674l2.784,7.955Zm13.106-2.148a1.925,1.925,0,0,1-.742,1.556,3.648,3.648,0,0,1-2.432.786h0a3.684,3.684,0,0,1-2.432-.786,1.933,1.933,0,0,1-.738-1.556v-5.8h1.649v5.8a1.135,1.135,0,0,0,.786.977,1.872,1.872,0,0,0,.754.13,1.84,1.84,0,0,0,.75-.13,1.167,1.167,0,0,0,.786-.977v-5.8h1.645Zm-15.12-4.231h0l-.989,3.327h1.986l-.993-3.327Z" transform="translate(-100.608 -236.47)"/><path class="b" d="M162.655,275.093h0l-.993,3.331h1.986l-.985-3.331Zm-28.044-.247c-.466-.045-1.321,0-2.1,0V276.9a18.8,18.8,0,0,0,2.229-.053,1.015,1.015,0,0,0-.13-2Zm-34.021-3.4v12.243h83.341V271.45ZM111.937,281.5h-1.524l-2.695-7.959h1.739c.551,1.986,1.139,4.235,1.718,5.9.58-1.661,1.171-3.911,1.714-5.892h1.722Zm12.757-4.928v1.378h-3.647v2.237h4.178v1.325H119.4v-7.979h5.836v1.317h-4.174v1.718Zm10.987,4.9c-.373,0,.182-3.153-1.179-3.242-.766-.045-1.244,0-2.026,0v3.242h-1.653v-7.951h3.765c1.216.065,2.432.559,2.533,1.9a1.875,1.875,0,0,1-1.621,2.164c1.9.405,1.191,2.622,1.7,3.874Zm9.082.024H143.1v-7.963h1.666Zm11.047-6.606h-2.371V281.5h-1.662v-6.606h-2.391v-1.3h6.423Zm8.851,6.606-.58-1.718h-2.873l-.575,1.738h-1.621l2.792-7.959h1.71l2.788,7.959Zm8.766.178c-2.432,0-3.347-1.512-3.347-2.667l1.52-.057a1.6,1.6,0,0,0,1.706,1.451c.855,0,1.8-.178,1.8-1.115,0-1.69-4.786-.7-4.786-3.38,0-1.431.973-2.654,3.076-2.654,2.922,0,3.181,1.982,3.181,2.488l-1.532.057c0-.648-.405-1.244-1.471-1.244-1.167,0-1.621.507-1.621,1.062,0,1.431,4.814.7,4.814,3.38C176.77,280.775,175.384,281.675,173.427,281.675Z" transform="translate(-100.59 -257.274)"/></g></g></svg>