<svg xmlns="http://www.w3.org/2000/svg" xmlns:xlink="http://www.w3.org/1999/xlink" width="40" height="40" viewBox="0 0 40 40"><defs><style>.a{fill:#fff;}.b{clip-path:url(#a);}</style><clipPath id="a"><rect class="a" width="40" height="40" transform="translate(278 2975)"/></clipPath></defs><g class="b" transform="translate(-278 -2975)"><g transform="translate(278 2975)"><path class="a" d="M32.895,32.41a.586.586,0,0,0-.586.586V38.5a.324.324,0,0,1-.324.324h-3.15V27.289a.586.586,0,0,0-1.172,0V38.828H21.321L23.16,36.8a1.05,1.05,0,0,0,.253-.843l0-.018L21.659,25.6l.472-.71a1.329,1.329,0,0,0,.839.364,1.026,1.026,0,0,0,.918-.568h0l1.848-3.7,4.209,1.63a4.06,4.06,0,0,1,2.363,3.69v3.963a.586.586,0,0,0,1.172,0V26.3a5.229,5.229,0,0,0-3.093-4.776l-.011,0L23.372,18.8V17.162a5.49,5.49,0,0,0,2.078-3.611,2.536,2.536,0,0,0,1.49-.608,2.488,2.488,0,0,0,.26-3.51V7.262a7.262,7.262,0,1,0-14.524,0V9.489a2.353,2.353,0,0,0-.6,1.568,2.483,2.483,0,0,0,.864,1.885,2.535,2.535,0,0,0,1.489.607,5.432,5.432,0,0,0,2.2,3.7V18.8l-7,2.713-.011,0A5.229,5.229,0,0,0,6.519,26.3V38.5a1.5,1.5,0,0,0,1.5,1.5H13.6a.586.586,0,1,0,0-1.172H12.337V27.289a.586.586,0,0,0-1.172,0V38.828H8.015a.324.324,0,0,1-.324-.324V26.3a4.06,4.06,0,0,1,2.363-3.69l4.206-1.63,1.848,3.7a1.026,1.026,0,0,0,.918.568,1.328,1.328,0,0,0,.839-.364l.472.71L16.585,35.944l0,.018a1.051,1.051,0,0,0,.253.843l1.839,2.023H16.332a.586.586,0,0,0,0,1.172H31.985a1.5,1.5,0,0,0,1.5-1.5V33A.586.586,0,0,0,32.895,32.41ZM24.639,20.552,22.916,24l-2.072-1.471,2.128-2.626Zm-3.463,3.653-.447.672H19.267l-.447-.672L20,23.37Zm-3.383-5.212V17.9a5.945,5.945,0,0,0,2.216.42,5.5,5.5,0,0,0,2.192-.457V19L20,21.716Zm8.839-7.936a1.313,1.313,0,0,1-.456,1,1.365,1.365,0,0,1-.677.311V9.75A1.326,1.326,0,0,1,26.631,11.058ZM14.376,12.366a1.324,1.324,0,0,1-1.133-1.308A1.392,1.392,0,0,1,14.376,9.78Zm.031-3.78a2.9,2.9,0,0,0-.56.126V7.262a6.09,6.09,0,1,1,12.18,0v1.41a2.6,2.6,0,0,0-.528-.1c0-.565,0-.456-1.845-2.445a1.042,1.042,0,0,0-1.331-.162A11.3,11.3,0,0,1,15.494,7.8,1.042,1.042,0,0,0,14.407,8.586Zm1.14,4.241V8.979A12.521,12.521,0,0,0,22.871,7c.848.911,1.308,1.389,1.456,1.57v4.253a4.39,4.39,0,0,1-8.779,0ZM17.08,24l-1.723-3.452,1.664-.644,2.128,2.627Zm.672,12.066,1.7-10.021h1.1l1.7,10.021L20,38.541Z"/></g></g></svg>