<svg xmlns="http://www.w3.org/2000/svg" xmlns:xlink="http://www.w3.org/1999/xlink" width="18" height="18" viewBox="0 0 18 18"><defs><style>.a{fill:#fff;}.b{clip-path:url(#a);}</style><clipPath id="a"><rect class="a" width="18" height="18" transform="translate(396 1336)"/></clipPath></defs><g class="b" transform="translate(-396 -1336)"><path class="a" d="M18,1.968c-1.132.052-1.108.048-1.236.059L17.435.111s-2.093.77-2.624.908a4.2,4.2,0,0,0-4.946-.4A3.426,3.426,0,0,0,8.219,4.143,9.137,9.137,0,0,1,2.3.811l-.5-.6L1.432.9A4.118,4.118,0,0,0,.993,3.668,3.983,3.983,0,0,0,1.379,4.75L.953,4.585.9,5.3a3.8,3.8,0,0,0,.644,2.258,4.014,4.014,0,0,0,.5.619l-.22-.034.269.816a3.965,3.965,0,0,0,2.038,2.362c-.95.4-1.718.661-2.98,1.076L0,12.772l1.066.583A11.194,11.194,0,0,0,4.33,14.543c3.156.495,6.709.092,9.1-2.062A8.566,8.566,0,0,0,15.969,5.4a1.678,1.678,0,0,1,.314-1.093C16.73,3.71,18,1.971,18,1.967Zm-2.56,1.707a2.733,2.733,0,0,0-.523,1.778A7.455,7.455,0,0,1,12.726,11.7c-1.86,1.676-4.861,2.333-8.233,1.8a8.164,8.164,0,0,1-1.764-.524,27.969,27.969,0,0,0,3.195-1.313l1.842-.872-2.034-.13a2.876,2.876,0,0,1-2.284-1.3,3.648,3.648,0,0,0,.774-.129l1.94-.54L4.206,8.213A2.913,2.913,0,0,1,2.427,6.975a2.984,2.984,0,0,1-.386-.851,4.883,4.883,0,0,0,.793.127l1.81.179L3.211,5.311A3.019,3.019,0,0,1,2.067,2.13,10.493,10.493,0,0,0,9.461,5.312a6.245,6.245,0,0,0-.108-.895,2.421,2.421,0,0,1,1.064-2.9,3.15,3.15,0,0,1,3.716.308A.944.944,0,0,0,15,2.058a7.289,7.289,0,0,0,.714-.217l-.455,1.3h.581l-.4.534Zm0,0" transform="translate(396 1337.634)"/></g></svg>